<?xml version="1.0" encoding="utf-8"?>
<!-- Generator: Adobe Illustrator 28.1.0, SVG Export Plug-In . SVG Version: 6.00 Build 0)  -->
<svg version="1.1" id="Layer_1" xmlns="http://www.w3.org/2000/svg" xmlns:xlink="http://www.w3.org/1999/xlink" x="0px" y="0px"
	 viewBox="0 0 214 281" style="enable-background:new 0 0 214 281;" xml:space="preserve">
<style type="text/css">
	.st0{fill:none;}
</style>
<path class="st0" d="M194.1,72.7h-13.9c-4.6,0-8.3-3.7-8.3-8.3V50.2c0-4.7-3.8-8.4-8.4-8.4h-13.9c-4.6,0-8.3-3.7-8.3-8.3V24
	c0-4.7-3.8-8.4-8.4-8.4H23.9c-4.7,0-8.4,3.8-8.4,8.4v26.2v30.9v121.8v26.2V260c0,4.7,3.8,8.4,8.4,8.4h170.1c4.7,0,8.4-3.8,8.4-8.4
	V81.1C202.5,76.5,198.7,72.7,194.1,72.7z"/>
</svg>
